<svg width="450" height="779" xmlns="http://www.w3.org/2000/svg" stroke="null" style="vector-effect: non-scaling-stroke;">
 <!-- Created with SVG Editor - http://github.com/mzalive/SVG Editor/ -->

 <g stroke="null">
  <title stroke="null">background</title>
  <rect stroke="null" fill="#fff" id="canvas_background" height="781" width="452" y="-1" x="-1"/>
  <g stroke="null" style="vector-effect: non-scaling-stroke;" display="none" overflow="visible" y="0" x="0" height="100%" width="100%" id="canvasGrid">
   <rect fill="url(#gridpattern)" stroke-width="0" y="0" x="0" height="100%" width="100%"/>
  </g>
 </g>
 <g stroke="null">
  <title stroke="null">Layer 1</title>
  <g stroke="null" id="svg_8">
   <path stroke="null" style="vector-effect: non-scaling-stroke;" id="svg_4" fill="#0E0D13" d="m2369.808891,227.160401l234.16508,0l0,22.861484l-234.16508,0l0,-22.861484z"/>
   <path stroke="null" style="vector-effect: non-scaling-stroke;" id="svg_5" fill="#0E0D13" d="m2369.808891,122.724985c0,-9.182523 8.668888,-16.626534 19.362487,-16.626534l195.440106,0c10.693539,0 19.362487,7.444011 19.362487,16.626534l0,266.024541c0,9.182523 -8.668949,16.626534 -19.362487,16.626534l-195.440106,0c-10.693599,0 -19.362487,-7.444011 -19.362487,-16.626534l0,-266.024541z"/>
   <rect stroke="null" style="vector-effect: non-scaling-stroke;" y="5904.920452" transform="matrix(0.6050777273380303,0,0,0.5195791818524939,-5229.489757541111,-3067.4498601084506) " id="svg_6" fill="#201F2E" rx="32" height="86" width="425" x="12518.210669"/>
   <path stroke="null" style="vector-effect: non-scaling-stroke;" id="svg_7" fill="#201F2E" d="m2419.122726,138.958197c-45.38083,-5.975161 -59.600156,-22.601694 -64.440778,-47.281706l60.810312,-14.548217l184.246168,-8.832846c5.546748,-1.125409 16.821161,4.780128 17.547254,37.409701c0.907617,40.786966 -42.65798,64.427819 -67.768705,67.545294c-25.110726,3.117475 -85.013421,-28.317065 -130.39425,-34.292226z"/>
  </g>
  <g stroke="null" id="svg_16">
   <path stroke="null" id="svg_12" fill="#0E0D13" d="m-3.059646,445.787358l456.559537,0l0,45.174084l-456.559537,0l0,-45.174084z"/>
   <path stroke="null" id="svg_13" fill="#0E0D13" d="m-3.059646,239.423927c0,-18.144582 16.902023,-32.85388 37.751693,-32.85388l381.056151,0c20.849552,0 37.751693,14.709298 37.751693,32.85388l0,525.662074c0,18.144582 -16.902141,32.85388 -37.751693,32.85388l-381.056151,0c-20.84967,0 -37.751693,-14.709298 -37.751693,-32.85388l0,-525.662074z"/>
   <rect stroke="null" y="6137.254721" transform="matrix(1.179740405021703,0,0,1.3204200670060453,-10419.991986787158,-8105.600976233638) " id="svg_14" fill="#201F2E" rx="32" height="86" width="425" x="8788.851293"/>
   <path stroke="null" id="svg_15" fill="#201F2E" d="m93.089197,349.705914c-88.48053,-15.184831 -116.20443,-57.438273 -125.642353,-120.158226l118.563911,-36.971762l359.230953,-22.447141c10.81468,-2.86003 32.796783,12.147865 34.212472,95.070245c1.769611,103.652975 -83.171699,163.732088 -132.130925,171.654609c-48.959227,7.92252 -165.753527,-71.962894 -254.234057,-87.147724z"/>
  </g>
  <rect id="svg_18" height="204.938314" width="491.358127" y="51.845623" x="-18.827211" stroke-width="1.5" stroke="null" fill="#201F2E"/>
 </g>
</svg>