<svg width="384" height="748" viewBox="0 0 384 748" fill="none" xmlns="http://www.w3.org/2000/svg">
<path d="M-1 436H386V480H-1V436Z" fill="#0E0D13"/>
<path d="M-1 235C-1 217.327 13.3269 203 31 203H354C371.673 203 386 217.327 386 235V747C386 764.673 371.673 779 354 779H31C13.3269 779 -1 764.673 -1 747V235Z" fill="#0E0D13"/>
<rect x="-42" width="425" height="86" rx="32" fill="#201F2E"/>
<path d="M80.5 266.243C5.5 254.743 -18 222.743 -26 175.243L74.5 147.243L379 130.243C388.167 128.077 406.8 139.443 408 202.243C409.5 280.743 337.5 326.243 296 332.243C254.5 338.243 155.5 277.743 80.5 266.243Z" fill="#201F2E"/>
</svg>
