<svg width="137" height="123" viewBox="0 0 137 123" fill="none" xmlns="http://www.w3.org/2000/svg">
<path d="M0 59.5467V28.292H6.04633V59.5467H0Z" fill="white"/>
<path d="M12.5315 59.5467V28.292H26.2903C27.7224 28.292 29.042 28.5937 30.2547 29.1941C31.4675 29.7945 32.5127 30.5893 33.3876 31.5698C34.2654 32.5531 34.9497 33.6669 35.4464 34.9142C35.943 36.1615 36.1913 37.4175 36.1913 38.6793C36.1913 40.704 35.686 42.5459 34.6783 44.2022C33.6706 45.8614 32.3048 47.0564 30.581 47.7903L37.6784 59.5438H30.8871L24.5347 49.0666H18.5779V59.5438H12.5315V59.5467ZM18.5779 43.7439H26.1574C26.7118 43.7439 27.2316 43.6104 27.7138 43.3465C28.196 43.0825 28.6118 42.7228 28.964 42.2674C29.3134 41.812 29.5906 41.2783 29.7956 40.6605C30.0006 40.0455 30.1017 39.3842 30.1017 38.6793C30.1017 37.9454 29.9833 37.2696 29.7523 36.6546C29.5184 36.0397 29.2037 35.5031 28.811 35.0477C28.4154 34.5923 27.9621 34.2413 27.4539 33.9918C26.9428 33.7424 26.4231 33.6176 25.8976 33.6176H18.5779V43.7439Z" fill="white"/>
<path d="M41.6717 59.5467V28.292H47.718V54.2182H63.5817V59.5438H41.6717V59.5467Z" fill="white"/>
<path d="M67.2603 59.5467V28.292H73.3066V59.5467H67.2603Z" fill="white"/>
<path d="M104.985 28.0977H98.4563L94.053 34.7344L97.183 39.2536L104.985 28.0977Z" fill="white"/>
<path d="M104.506 59.2567L90.845 39.5698L87.0706 33.9918L82.9883 28.0977H76.4164L87.5014 43.9469L76.7658 59.3524H83.3405L90.744 48.1703L98.107 59.3524H104.635L104.569 59.2567H104.506Z" fill="white"/>
<path d="M55.1329 84.3097C53.8528 84.3097 52.7379 84.0206 51.7881 83.4425C50.8383 82.8644 50.095 82.1005 49.5582 81.1507V90.5968H45.4082V67.7714H49.0317V70.5587C49.6305 69.609 50.4048 68.8657 51.3545 68.3288C52.3249 67.7714 53.4192 67.4926 54.6374 67.4926C56.1034 67.4926 57.4041 67.8746 58.5397 68.6385C59.6753 69.3818 60.5735 70.3936 61.2342 71.6737C61.8949 72.9331 62.2252 74.3268 62.2252 75.8547C62.2252 77.4445 61.9155 78.8795 61.2961 80.1596C60.6973 81.4191 59.8611 82.4308 58.7875 83.1948C57.7345 83.9381 56.5163 84.3097 55.1329 84.3097ZM53.7393 80.7791C54.5858 80.7791 55.3188 80.5519 55.9382 80.0977C56.5782 79.6228 57.0738 79.0137 57.4248 78.2704C57.7964 77.5065 57.9822 76.7012 57.9822 75.8547C57.9822 74.9462 57.7861 74.1307 57.3938 73.408C57.0015 72.6647 56.4647 72.0866 55.7833 71.6737C55.1226 71.2401 54.3587 71.0233 53.4915 71.0233C52.7069 71.0233 51.9223 71.2814 51.1377 71.7976C50.3531 72.3137 49.8266 72.9641 49.5582 73.7487V77.5581C49.9299 78.4666 50.4977 79.2305 51.2616 79.8499C52.0256 80.4693 52.8514 80.7791 53.7393 80.7791ZM64.8822 77.9297V67.7714H69.0322V77.0316C69.0322 79.5299 69.9304 80.7791 71.7267 80.7791C72.5319 80.7791 73.3062 80.5416 74.0495 80.0667C74.8134 79.5712 75.4328 78.8279 75.9077 77.8368V67.7714H80.0578V79.3544C80.0578 79.8086 80.1301 80.1287 80.2746 80.3145C80.4191 80.4797 80.6772 80.5829 81.0489 80.6242V84C80.6359 84.0826 80.2849 84.1342 79.9959 84.1549C79.7274 84.1755 79.4797 84.1858 79.2526 84.1858C78.5093 84.1858 77.9002 84.0206 77.4253 83.6903C76.9711 83.3393 76.7026 82.8644 76.6201 82.2656L76.5271 80.9649C75.8045 82.0798 74.8754 82.916 73.7398 83.4735C72.6042 84.031 71.355 84.3097 69.9923 84.3097C68.3199 84.3097 67.0501 83.7729 66.1829 82.6992C65.3158 81.6049 64.8822 80.0151 64.8822 77.9297ZM93.4112 84.3097C92.1724 84.3097 91.0678 84.031 90.0974 83.4735C89.127 82.916 88.363 82.1521 87.8055 81.1817V84H84.182V61.3914H88.332V70.6207C88.9102 69.6503 89.6638 68.8863 90.5929 68.3288C91.5427 67.7714 92.6473 67.4926 93.9068 67.4926C95.3108 67.4926 96.5393 67.8849 97.5923 68.6695C98.6659 69.4335 99.5021 70.4555 100.101 71.7356C100.7 73.0157 100.999 74.4197 100.999 75.9476C100.999 77.5168 100.669 78.9311 100.008 80.1906C99.3473 81.4501 98.4388 82.4515 97.2826 83.1948C96.147 83.9381 94.8565 84.3097 93.4112 84.3097ZM92.2653 80.7791C93.1531 80.7791 93.9274 80.5623 94.5881 80.1287C95.2695 79.6951 95.796 79.117 96.1676 78.3943C96.5599 77.651 96.7561 76.8458 96.7561 75.9786C96.7561 75.0908 96.5702 74.2752 96.1986 73.5319C95.8476 72.768 95.3521 72.1589 94.712 71.7046C94.0719 71.2504 93.339 71.0233 92.5131 71.0233C91.6046 71.0233 90.7684 71.333 90.0045 71.9524C89.2612 72.5512 88.7037 73.2945 88.332 74.1823V78.0536C88.6005 78.8589 89.127 79.5196 89.9115 80.0358C90.6961 80.5313 91.4807 80.7791 92.2653 80.7791Z" fill="white"/>
<rect x="29.4976" y="-50" width="204.882" height="5.81978" transform="rotate(55.4712 29.4976 -50)" fill="white"/>
</svg>
