<svg width="56" height="30" viewBox="0 0 56 30" fill="none" xmlns="http://www.w3.org/2000/svg">
<path d="M10.1329 23.3097C8.85282 23.3097 7.73788 23.0206 6.78811 22.4425C5.83834 21.8644 5.09505 21.1005 4.55822 20.1507V29.5968H0.408154V6.77137H4.03172V9.55873C4.63049 8.60896 5.40476 7.86567 6.35452 7.32884C7.32494 6.77137 8.41923 6.49263 9.63741 6.49263C11.1034 6.49263 12.4041 6.87461 13.5397 7.63855C14.6753 8.38185 15.5735 9.39355 16.2342 10.6737C16.8949 11.9331 17.2252 13.3268 17.2252 14.8547C17.2252 16.4445 16.9155 17.8795 16.2961 19.1596C15.6973 20.4191 14.8611 21.4308 13.7875 22.1948C12.7345 22.9381 11.5163 23.3097 10.1329 23.3097ZM8.73926 19.7791C9.5858 19.7791 10.3188 19.5519 10.9382 19.0977C11.5782 18.6228 12.0738 18.0137 12.4248 17.2704C12.7964 16.5065 12.9822 15.7012 12.9822 14.8547C12.9822 13.9462 12.7861 13.1307 12.3938 12.408C12.0015 11.6647 11.4647 11.0866 10.7833 10.6737C10.1226 10.2401 9.35868 10.0233 8.4915 10.0233C7.70691 10.0233 6.92232 10.2814 6.13773 10.7976C5.35314 11.3137 4.82664 11.9641 4.55822 12.7487V16.5581C4.92987 17.4666 5.49767 18.2305 6.26161 18.8499C7.02555 19.4693 7.85144 19.7791 8.73926 19.7791ZM19.8822 16.9297V6.77137H24.0322V16.0316C24.0322 18.5299 24.9304 19.7791 26.7267 19.7791C27.5319 19.7791 28.3062 19.5416 29.0495 19.0667C29.8134 18.5712 30.4328 17.8279 30.9077 16.8368V6.77137H35.0578V18.3544C35.0578 18.8086 35.1301 19.1287 35.2746 19.3145C35.4191 19.4797 35.6772 19.5829 36.0489 19.6242V23C35.6359 23.0826 35.2849 23.1342 34.9959 23.1549C34.7274 23.1755 34.4797 23.1858 34.2526 23.1858C33.5093 23.1858 32.9002 23.0206 32.4253 22.6903C31.9711 22.3393 31.7026 21.8644 31.6201 21.2656L31.5271 19.9649C30.8045 21.0798 29.8754 21.916 28.7398 22.4735C27.6042 23.031 26.355 23.3097 24.9923 23.3097C23.3199 23.3097 22.0501 22.7729 21.1829 21.6992C20.3158 20.6049 19.8822 19.0151 19.8822 16.9297ZM48.4112 23.3097C47.1724 23.3097 46.0678 23.031 45.0974 22.4735C44.127 21.916 43.363 21.1521 42.8055 20.1817V23H39.182V0.391414H43.332V9.62067C43.9102 8.65026 44.6638 7.88631 45.5929 7.32884C46.5427 6.77137 47.6473 6.49263 48.9068 6.49263C50.3108 6.49263 51.5393 6.88493 52.5923 7.66952C53.6659 8.43346 54.5021 9.45549 55.1009 10.7356C55.6997 12.0157 55.999 13.4197 55.999 14.9476C55.999 16.5168 55.6687 17.9311 55.008 19.1906C54.3473 20.4501 53.4388 21.4515 52.2826 22.1948C51.147 22.9381 49.8565 23.3097 48.4112 23.3097ZM47.2653 19.7791C48.1531 19.7791 48.9274 19.5623 49.5881 19.1287C50.2695 18.6951 50.796 18.117 51.1676 17.3943C51.5599 16.651 51.7561 15.8458 51.7561 14.9786C51.7561 14.0908 51.5702 13.2752 51.1986 12.5319C50.8476 11.768 50.3521 11.1589 49.712 10.7046C49.0719 10.2504 48.339 10.0233 47.5131 10.0233C46.6046 10.0233 45.7684 10.333 45.0045 10.9524C44.2612 11.5512 43.7037 12.2945 43.332 13.1823V17.0536C43.6005 17.8589 44.127 18.5196 44.9115 19.0358C45.6961 19.5313 46.4807 19.7791 47.2653 19.7791Z" fill="white"/>
</svg>
