<svg width="105" height="32" viewBox="0 0 105 32" fill="none" xmlns="http://www.w3.org/2000/svg">
<path d="M0 31.5467V0.292001H6.04633V31.5467H0Z" fill="white"/>
<path d="M12.5315 31.5467V0.292001H26.2903C27.7224 0.292001 29.042 0.593671 30.2547 1.19411C31.4675 1.79455 32.5127 2.58933 33.3876 3.56976C34.2654 4.55309 34.9497 5.66694 35.4464 6.91423C35.943 8.16152 36.1913 9.41751 36.1913 10.6793C36.1913 12.704 35.686 14.5459 34.6783 16.2022C33.6706 17.8614 32.3048 19.0564 30.581 19.7903L37.6784 31.5438H30.8871L24.5347 21.0666H18.5779V31.5438H12.5315V31.5467ZM18.5779 15.7439H26.1574C26.7118 15.7439 27.2316 15.6104 27.7138 15.3465C28.196 15.0825 28.6118 14.7228 28.964 14.2674C29.3134 13.812 29.5906 13.2783 29.7956 12.6605C30.0006 12.0455 30.1017 11.3842 30.1017 10.6793C30.1017 9.94543 29.9833 9.26958 29.7523 8.65463C29.5184 8.03969 29.2037 7.50307 28.811 7.04766C28.4154 6.59226 27.9621 6.24128 27.4539 5.99182C26.9428 5.74236 26.4231 5.61763 25.8976 5.61763H18.5779V15.7439Z" fill="white"/>
<path d="M41.6717 31.5467V0.292001H47.718V26.2182H63.5817V31.5438H41.6717V31.5467Z" fill="white"/>
<path d="M67.2603 31.5467V0.292001H73.3066V31.5467H67.2603Z" fill="white"/>
<path d="M104.985 0.0976562H98.4563L94.053 6.73439L97.183 11.2536L104.985 0.0976562Z" fill="white"/>
<path d="M104.506 31.2567L90.845 11.5698L87.0706 5.99182L82.9883 0.0976562H76.4164L87.5014 15.9469L76.7658 31.3524H83.3405L90.744 20.1703L98.107 31.3524H104.635L104.569 31.2567H104.506Z" fill="white"/>
</svg>
